<?xml version="1.0" encoding="UTF-8"?>
<!DOCTYPE svg PUBLIC "-//W3C//DTD SVG 1.1//EN" "http://www.w3.org/Graphics/SVG/1.1/DTD/svg11.dtd">
<!-- Creator: CorelDRAW -->
<svg xmlns="http://www.w3.org/2000/svg" xml:space="preserve" width="2048px" height="2048px" style="shape-rendering:geometricPrecision; text-rendering:geometricPrecision; image-rendering:optimizeQuality; fill-rule:evenodd; clip-rule:evenodd"
viewBox="0 0 2048 2048"
 xmlns:xlink="http://www.w3.org/1999/xlink">
 <defs>
  <style type="text/css">
   <![CDATA[
    .fil0 {fill:#9E9E9E}
    .fil1 {fill:white;fill-rule:nonzero}
   ]]>
  </style>
 </defs>
 <g id="Layer_x0020_1">
  <metadata id="CorelCorpID_0Corel-Layer"/>
  <rect class="fil0" width="2048" height="2048" rx="256.001" ry="256.001"/>
  <path class="fil1" d="M897.843 1290.83c-54.7678,85.8272 -146.451,229.51 -68.4544,403.125l45.5422 101.372 -92.4166 -61.9229c-107.283,-71.8843 -182.206,-142.734 -230.714,-217.488 -49.6855,-76.5674 -71.5205,-156.541 -71.6753,-245.039l-0.125197 0 0 -0.183071 0.125197 0c-0.0271654,-18.0756 0.857481,-36.4382 2.59725,-55.1339 1.79882,-19.3276 4.35118,-38.3209 7.60985,-57.0733 13.2059,-76.0016 41.6611,-143.728 69.8457,-210.815 32.4508,-77.2418 64.5296,-153.593 69.0001,-235.43l7.00985 -128.283 53.8654 116.55c20.7744,44.9481 32.3882,83.5855 39.3803,122.691 1.47874,8.26536 2.7437,16.5579 3.84331,24.9437 39.2079,-67.878 72.7288,-140.725 99.4465,-217.201 36.2469,-103.752 60.0213,-214.37 68.5465,-328.523l3.21969 -43.0926 40.2815 15.7536c0.668504,0.261024 216.457,81.0591 326.001,449.657 0.851575,-5.36575 1.52126,-10.8284 2.02323,-16.3559 4.18465,-46.0678 -3.37796,-95.0906 -16.9902,-130.492l-45.7559 -118.991 96.3804 83.5371c18.2622,15.8303 53.0091,55.3536 90.6591,111.178 64.1044,95.0469 139.652,240.646 163.354,404.427 24.026,166.025 -4.90985,349.989 -151.399,518.54 -47.3918,54.528 -106.895,107.206 -180.658,156.825l-90.3993 60.8079 43.1492 -99.8812c54.4796,-126.112 63.5611,-242.077 36.5941,-346.22 -23.6918,-91.4965 -75.2528,-174.704 -148.358,-248.351 -1.48583,41.9611 -7.59686,91.519 -19.8945,141.756 -16.3772,66.9048 -43.6996,135.848 -85.6253,191.338l-78.1359 103.415 21.1358 -127.756c8.56418,-51.7654 3.81969,-94.4883 -3.9,-125.695 -1.66772,2.62323 -3.37205,5.29252 -5.10827,8.01379z"/>
 </g>
</svg>
